#!OML:ASF E:\EmotionMaleHayes\Project 1\Capture day 1\Session 1\Male1.ASF
:FULLY-SPECIFIED
:DEGREES
277
root 1.09575 16.6334 0.0817708 451.131 78.4439 453.54
lowerback 6.6764 -0.218895 -15.0452
upperback 3.76885 -0.933222 -2.26894
thorax 0.495207 -0.59551 6.0791
lowerneck -21.9157 1.62974 4.15807
upperneck 32.2392 1.82733 -1.21933
head 14.9428 1.3315 -0.819745
rclavicle -2.31056e-014 -7.10655e-015
rhumerus -44.7133 -8.60877 -77.4043
rradius 26.1203
rwrist 5.40545
rhand -10.3404 -29.8806
rfingers 7.12502
rthumb 15.6558 -59.2672
lclavicle -2.31056e-014 -7.10655e-015
lhumerus -11.156 -23.5135 87.38
lradius 44.4811
lwrist 3.05579
lhand -18.6612 -29.0788
lfingers 7.12502
lthumb 7.63214 0.763442
rfemur -29.453 -5.46843 7.92722
rtibia 35.1192
rfoot -13.8238 -5.24433
rtoes 17.8887
lfemur 16.6255 1.92141 -35.2226
ltibia -5.40694e-014
lfoot -13.7877 3.72661
ltoes -15.9236
278
root 1.23564 16.6293 0.0890255 451.697 78.2508 453.909
lowerback 6.4421 -0.272421 -15.312
upperback 3.78279 -0.973784 -2.2048
thorax 0.661218 -0.633473 6.29224
lowerneck -22.1465 1.62294 4.02156
upperneck 32.1443 1.83985 -1.20907
head 14.9492 1.31414 -0.789241
rclavicle 9.31803e-015 8.10048e-015
rhumerus -44.7456 -9.4428 -76.6443
rradius 25.7929
rwrist 6.35586
rhand -9.81252 -30.4092
rfingers 7.12502
rthumb 16.1642 -59.7552
lclavicle 9.31803e-015 8.10048e-015
lhumerus -10.8526 -23.2865 87.5289
lradius 44.5555
lwrist 3.05181
lhand -18.5735 -29.0565
lfingers 7.12502
lthumb 7.71687 0.782729
rfemur -29.6536 -5.1483 7.65132
rtibia 32.964
rfoot -14.0159 -4.50118
rtoes 18.0438
lfemur 16.9432 1.67976 -35.4401
ltibia 1.74931e-014
lfoot -14.1844 3.91204
ltoes -16.363
279
root 1.37568 16.6208 0.100315 452.158 78.1344 454.169
lowerback 6.22522 -0.291342 -15.4769
upperback 3.72546 -0.976062 -2.15608
thorax 0.728159 -0.641469 6.43225
lowerneck -22.1373 1.58678 3.97588
upperneck 32.0014 1.78878 -1.19494
head 14.8789 1.28483 -0.78579
rclavicle -1.0225e-014 3.27995e-015
rhumerus -44.9483 -10.1137 -76.0287
rradius 25.5764
rwrist 6.9938
rhand -9.59863 -30.1654
rfingers 7.12502
rthumb 16.3701 -59.4946
lclavicle -1.0225e-014 3.27995e-015
lhumerus -10.7714 -23.2521 87.6619
lradius 44.6518
lwrist 2.95759
lhand -18.7152 -29.1663
lfingers 7.12502
lthumb 7.58004 0.677857
rfemur -29.8914 -4.5975 7.38586
rtibia 31.087
rfoot -14.6335 -3.6703
rtoes 17.4975
lfemur 17.2802 1.4519 -35.5504
ltibia -8.5875e-014
lfoot -14.5907 3.95472
ltoes -16.0876
280
root 1.5183 16.6091 0.109898 452.895 78.0991 454.785
lowerback 6.09921 -0.341051 -15.4472
upperback 3.63315 -1.0297 -2.17668
thorax 0.709388 -0.662751 6.39546
lowerneck -21.9374 1.58752 4.14214
upperneck 31.8956 1.75138 -1.24696
head 14.7877 1.28226 -0.843942
rclavicle 5.45415e-015 -3.76697e-014
rhumerus -45.3472 -10.5172 -75.7765
rradius 25.6053
rwrist 6.85307
rhand -10.0717 -29.7681
rfingers 7.12502
rthumb 15.9146 -59.1342
lclavicle 5.45415e-015 -3.76697e-014
lhumerus -10.8116 -23.4197 87.6584
lradius 44.6775
lwrist 2.87647
lhand -18.9707 -29.4171
lfingers 7.12502
lthumb 7.33342 0.435801
rfemur -30.141 -4.39883 7.25658
rtibia 29.5407
rfoot -15.3806 -2.50802
rtoes 14.7364
lfemur 17.727 1.1767 -35.5839
ltibia 4.13472e-014
lfoot -14.9465 4.06458
ltoes -16.3293
281
root 1.66238 16.6004 0.115423 453.528 78.0597 455.333
lowerback 6.00193 -0.425901 -15.3932
upperback 3.58495 -1.12735 -2.21122
thorax 0.730877 -0.70955 6.33203
lowerneck -21.8882 1.62977 4.34999
upperneck 31.8595 1.77488 -1.36469
head 14.7654 1.30027 -0.924228
rclavicle -2.17048e-014 -1.54555e-014
rhumerus -45.6583 -10.9973 -75.4719
rradius 25.5657
rwrist 6.72115
rhand -10.4934 -29.7179
rfingers 7.12502
rthumb 15.5085 -59.1159
lclavicle -2.17048e-014 -1.54555e-014
lhumerus -10.8449 -23.4831 87.6232
lradius 44.69
lwrist 2.78441
lhand -19.1494 -29.5322
lfingers 7.12502
lthumb 7.16093 0.326639
rfemur -30.4732 -4.54644 7.20853
rtibia 28.3525
rfoot -16.144 -1.04457
rtoes 11.8399
lfemur 18.1974 0.926956 -35.631
ltibia -1.27222e-014
lfoot -15.2784 4.18183
ltoes -16.2699
282
root 1.80718 16.5905 0.120219 454.121 77.9375 455.835
lowerback 5.84277 -0.530264 -15.5087
upperback 3.62519 -1.23631 -2.16768
thorax 0.893875 -0.779821 6.44261
lowerneck -22.109 1.69585 4.42448
upperneck 31.7936 1.87039 -1.51243
head 14.7907 1.32203 -0.979754
rclavicle 7.82715e-015 6.95746e-016
rhumerus -45.5593 -11.4056 -75.0495
rradius 25.2629
rwrist 6.90615
rhand -10.5015 -29.9693
rfingers 7.12502
rthumb 15.5006 -59.368
lclavicle 7.82715e-015 6.95746e-016
lhumerus -10.7756 -23.2093 87.7165
lradius 44.6737
lwrist 2.60662
lhand -19.3161 -29.7065
lfingers 7.12502
lthumb 7 0.157723
rfemur -30.9305 -5.07599 7.21231
rtibia 27.5239
rfoot -16.6942 0.652426
rtoes 9.90325
lfemur 18.6639 0.680967 -35.7717
ltibia 2.8625e-014
lfoot -15.6581 4.2072
ltoes -15.6005
283
root 1.95035 16.5773 0.127715 454.794 77.7666 456.398
lowerback 5.77121 -0.592839 -15.6568
upperback 3.61321 -1.31472 -2.11589
thorax 0.946445 -0.825708 6.5809
lowerneck -22.3051 1.72415 4.29501
upperneck 31.7022 1.93172 -1.4916
head 14.7929 1.32875 -0.936806
rclavicle -3.09359e-015 -2.85256e-014
rhumerus -45.4875 -11.6525 -74.7414
rradius 25.0658
rwrist 7.01497
rhand -10.4876 -30.1315
rfingers 7.12502
rthumb 15.5141 -59.5291
lclavicle -3.09359e-015 -2.85256e-014
lhumerus -10.6427 -22.9378 87.9284
lradius 44.4896
lwrist 2.60658
lhand -19.3076 -29.9234
lfingers 7.12502
lthumb 7.00818 -0.0594103
rfemur -31.3901 -5.8022 7.25677
rtibia 26.9864
rfoot -17.1287 2.45997
rtoes 9.73574
lfemur 19.0936 0.413014 -35.9666
ltibia 3.49861e-014
lfoot -15.8949 4.33165
ltoes -15.9943
284
root 2.09103 16.563 0.135759 455.041 77.7968 456.512
lowerback 5.76133 -0.581449 -15.5178
upperback 3.49138 -1.31122 -2.08303
thorax 0.814037 -0.809157 6.54144
lowerneck -22.2664 1.66261 4.10558
upperneck 31.673 1.85498 -1.31732
head 14.7635 1.29857 -0.846828
rclavicle 1.86361e-014 -4.96962e-016
rhumerus -45.7973 -11.8012 -74.5476
rradius 25.0967
rwrist 6.8301
rhand -10.7926 -29.8901
rfingers 7.12502
rthumb 15.2203 -59.3102
lclavicle 1.86361e-014 -4.96962e-016
lhumerus -10.7324 -23.0663 88.1194
lradius 44.2873
lwrist 2.74251
lhand -19.3995 -29.952
lfingers 7.12502
lthumb 6.91948 -0.0851319
rfemur -31.7919 -6.58451 7.60588
rtibia 26.6337
rfoot -17.3969 4.32625
rtoes 10.3942
lfemur 19.4589 0.241688 -35.9454
ltibia -3.18055e-015
lfoot -15.9683 4.51895
ltoes -17.4133
285
root 2.23267 16.5432 0.14122 455.231 78.0564 456.582
lowerback 5.74816 -0.566265 -15.094
upperback 3.35682 -1.29337 -2.03382
thorax 0.655625 -0.780702 6.3623
lowerneck -22.2684 1.58402 4.12214
upperneck 31.7212 1.7156 -1.26273
head 14.7806 1.25152 -0.853415
rclavicle -4.72114e-015 -4.6118e-014
rhumerus -46.1577 -11.9134 -74.4394
rradius 25.2103
rwrist 6.58084
rhand -11.0834 -29.9372
rfingers 7.12502
rthumb 14.9402 -59.3784
lclavicle -4.72114e-015 -4.6118e-014
lhumerus -11.1012 -23.319 88.274
lradius 44.1802
lwrist 2.69918
lhand -19.7777 -30.1798
lfingers 7.12502
lthumb 6.55445 -0.301257
rfemur -32.1227 -7.79668 8.40416
rtibia 26.4126
rfoot -17.3591 6.28298
rtoes 9.88973
lfemur 19.8876 0.0992076 -35.6787
ltibia 4.45278e-014
lfoot -16.1604 4.61981
ltoes -18.0719
286
root 2.37746 16.522 0.152193 456.045 78.2434 457.349
lowerback 5.78254 -0.592932 -14.8271
upperback 3.2798 -1.3374 -1.9555
thorax 0.554094 -0.791924 6.30265
lowerneck -22.2817 1.54684 4.16116
upperneck 31.6647 1.6382 -1.25975
head 14.7557 1.22228 -0.87367
rclavicle 1.18525e-014 2.94201e-014
rhumerus -46.2827 -12.1185 -74.2679
rradius 25.2933
rwrist 6.86645
rhand -10.7362 -30.5001
rfingers 7.12502
rthumb 15.2746 -59.9161
lclavicle 1.18525e-014 2.94201e-014
lhumerus -11.4713 -23.151 88.5305
lradius 44.0393
lwrist 2.4729
lhand -19.8766 -30.5321
lfingers 7.12502
lthumb 6.45897 -0.650618
rfemur -32.1287 -8.39148 8.88723
rtibia 26.2808
rfoot -17.4929 7.21201
rtoes 8.45026
lfemur 20.4281 -0.176977 -35.4376
ltibia 6.36111e-015
lfoot -16.4032 4.59915
ltoes -17.667
287
root 2.52088 16.5037 0.167593 456.824 78.2849 458.14
lowerback 5.78461 -0.593381 -14.7555
upperback 3.30697 -1.33417 -1.87773
thorax 0.580581 -0.794333 6.34566
lowerneck -22.3186 1.46857 3.99038
upperneck 31.5426 1.53767 -1.14489
head 14.7018 1.17136 -0.816154
rclavicle -1.44864e-014 -6.75868e-015
rhumerus -46.1257 -12.2626 -74.1366
rradius 25.2101
rwrist 7.11658
rhand -10.2655 -30.6713
rfingers 7.12502
rthumb 15.728 -60.0522
lclavicle -1.44864e-014 -6.75868e-015
lhumerus -11.637 -22.8926 88.8418
lradius 43.8037
lwrist 2.30952
lhand -19.8611 -30.6227
lfingers 7.12502
lthumb 6.47391 -0.741599
rfemur -31.8465 -7.92376 8.7982
rtibia 26.2781
rfoot -17.7141 7.06546
rtoes 7.53299
lfemur 21.0035 -0.456936 -35.3288
ltibia -1.27222e-014
lfoot -16.4912 4.56741
ltoes -17.9093
288
root 2.66099 16.4873 0.181007 457.204 78.4495 458.506
lowerback 5.80582 -0.584312 -14.5254
upperback 3.29017 -1.3216 -1.7941
thorax 0.540723 -0.784479 6.30811
lowerneck -22.3939 1.42339 3.90067
upperneck 31.5157 1.47847 -1.08862
head 14.7027 1.14173 -0.788638
rclavicle -1.83876e-015 4.96962e-015
rhumerus -46.0835 -12.1431 -74.2071
rradius 25.2453
rwrist 6.94223
rhand -10.2167 -30.5329
rfingers 7.12502
rthumb 15.775 -59.9101
lclavicle -1.83876e-015 4.96962e-015
lhumerus -11.9092 -22.7245 89.1336
lradius 43.5325
lwrist 2.1141
lhand -20.086 -30.7484
lfingers 7.12502
lthumb 6.25681 -0.860793
rfemur -31.5329 -7.02988 8.67856
rtibia 26.5006
rfoot -17.6381 6.69442
rtoes 8.80213
lfemur 21.5623 -0.642608 -35.1103
ltibia 3.18055e-015
lfoot -16.4747 4.52646
ltoes -18.6522
